<svg width="20" height="20" viewBox="0 0 20 20" fill="none" xmlns="http://www.w3.org/2000/svg">
<path d="M11.9705 3.73186L11.9706 3.73209L16.5682 12.5347C16.5683 12.5348 16.5683 12.5349 16.5684 12.5349C17.0989 13.5522 17.1154 14.4532 16.7531 15.1112C16.3969 15.7583 15.6752 16.1667 14.5977 16.1667H5.40226C4.32483 16.1667 3.60309 15.7583 3.24686 15.1112C2.88486 14.4537 2.90067 13.5603 3.43203 12.5342C3.43216 12.534 3.43229 12.5337 3.43242 12.5335L8.02938 3.73209L8.0295 3.73186C8.60211 2.63413 9.31965 2.16669 10 2.16669C10.6803 2.16669 11.3979 2.63413 11.9705 3.73186ZM10.8341 14.0521L10.8604 14.0296L10.8834 14.0038C11.0914 13.7703 11.2184 13.4543 11.2184 13.1287C11.2184 12.8032 11.0914 12.4872 10.8834 12.2536L10.8604 12.2278L10.8341 12.2054L10.7263 12.1137L10.7095 12.0994L10.6915 12.0866C10.6262 12.0403 10.5541 11.9993 10.4753 11.9678C10.4035 11.9329 10.3257 11.9059 10.2387 11.8901C10.2323 11.8886 10.2258 11.8871 10.2193 11.8857C10.7035 11.7788 11.0388 11.3254 11.0388 10.8363V7.01564C11.0388 6.45573 10.5993 5.94254 10 5.94254C9.40069 5.94254 8.9612 6.45573 8.9612 7.01564V10.8363C8.9612 11.3245 9.29523 11.7771 9.77798 11.8851C9.76934 11.8869 9.76073 11.8887 9.75217 11.8907C9.67102 11.9067 9.59498 11.9335 9.52456 11.9678C9.44582 11.9993 9.37382 12.0403 9.30848 12.0866L9.29047 12.0994L9.27366 12.1137L9.16591 12.2054L9.13957 12.2278L9.11656 12.2536C8.90858 12.4872 8.7816 12.8032 8.7816 13.1287C8.7816 13.4543 8.90858 13.7703 9.11656 14.0038L9.13957 14.0297L9.16591 14.0521L9.27366 14.1438L9.29047 14.1581L9.30848 14.1708C9.37382 14.2172 9.44582 14.2581 9.52456 14.2897C9.59984 14.3263 9.68154 14.3544 9.76905 14.3699L9.76902 14.3701L9.7812 14.3719C9.7839 14.3723 9.78685 14.3728 9.79001 14.3733C9.83306 14.3799 9.91748 14.3929 10 14.3929C10.0875 14.3929 10.1725 14.3789 10.2186 14.3708C10.3137 14.3556 10.398 14.3273 10.4753 14.2897C10.5541 14.2582 10.6262 14.2172 10.6915 14.1708L10.7095 14.1581L10.7263 14.1438L10.8341 14.0521Z" fill="#D73847" stroke="#D73847"/>
</svg>
