<svg width="20" height="20" viewBox="0 0 20 20" fill="none" xmlns="http://www.w3.org/2000/svg">
<g id="Icon Asset">
<path id="Vector" fill-rule="evenodd" clip-rule="evenodd" d="M12.8703 7.34587C12.9097 6.88733 13.3135 6.54762 13.7721 6.58711C15.3964 6.72698 16.7082 7.23026 17.5852 8.31105C18.4435 9.36881 18.7589 10.8286 18.7589 12.5924V12.7007C18.7589 14.6456 18.3746 16.224 17.3033 17.2951C16.2322 18.3663 14.6538 18.7507 12.7089 18.7507H7.28389C5.33897 18.7507 3.76061 18.3663 2.68942 17.2951C1.61824 16.224 1.23389 14.6456 1.23389 12.7007V12.5924C1.23389 10.8413 1.54509 9.39073 2.38941 8.33531C3.253 7.25584 4.54603 6.74531 6.1482 6.59596C6.60645 6.55325 7.01257 6.8901 7.05529 7.34835C7.098 7.8066 6.76115 8.21271 6.3029 8.25543C4.95507 8.38106 4.16894 8.7789 3.69086 9.37648C3.19352 9.99815 2.90055 10.9934 2.90055 12.5924V12.7007C2.90055 14.4808 3.26204 15.5107 3.86794 16.1166C4.47383 16.7226 5.5038 17.0841 7.28389 17.0841H12.7089C14.489 17.0841 15.5189 16.7226 16.1248 16.1166C16.7307 15.5107 17.0922 14.4808 17.0922 12.7007V12.5924C17.0922 10.9811 16.7952 9.98256 16.2909 9.36115C15.8054 8.76281 15.0047 8.36606 13.6291 8.24762C13.1705 8.20814 12.8308 7.80441 12.8703 7.34587Z" fill="#24272A"/>
<path id="Vector_2" fill-rule="evenodd" clip-rule="evenodd" d="M10.5897 1.49408C10.2643 1.16864 9.73666 1.16864 9.41125 1.49408L6.61956 4.28574C6.29413 4.61118 6.29413 5.13882 6.61956 5.46426C6.945 5.78969 7.47264 5.78969 7.79808 5.46426L9.16683 4.0955V12.5001C9.16683 12.9603 9.53991 13.3334 10.0002 13.3334C10.4604 13.3334 10.8335 12.9603 10.8335 12.5001V4.09485L12.2029 5.46426C12.5283 5.78969 13.056 5.78969 13.3814 5.46426C13.7068 5.13882 13.7068 4.61118 13.3814 4.28574L10.5897 1.49408Z" fill="#24272A"/>
</g>
</svg>
