<svg width="16" height="16" viewBox="0 0 16 16" fill="none" xmlns="http://www.w3.org/2000/svg">
<path d="M13.5385 14H2.46154C2.20923 14 2 13.7959 2 13.5499C2 13.3038 2.20923 13.0997 2.46154 13.0997H13.5385C13.7908 13.0997 14 13.3038 14 13.5499C14 13.7959 13.7908 14 13.5385 14Z" fill="#FCFCFC"/>
<path d="M12.32 2.88457C11.1262 1.7202 9.95697 1.69019 8.73235 2.88457L7.98774 3.6108C7.9262 3.67082 7.90158 3.76685 7.9262 3.85087C8.39389 5.44138 9.69851 6.71378 11.3293 7.16993C11.3539 7.17593 11.3785 7.18193 11.4031 7.18193C11.4708 7.18193 11.5324 7.15792 11.5816 7.10991L12.32 6.38368C12.9293 5.79549 13.2247 5.22531 13.2247 4.64913C13.2308 4.05494 12.9354 3.47875 12.32 2.88457Z" fill="#FCFCFC"/>
<path d="M10.2217 7.71589C10.0433 7.63186 9.87096 7.54783 9.70481 7.4518C9.56943 7.37378 9.4402 7.28975 9.31096 7.19972C9.20635 7.1337 9.08327 7.03767 8.96635 6.94164C8.95404 6.93564 8.91096 6.89963 8.86173 6.85161C8.65866 6.68356 8.43096 6.46749 8.22789 6.22742C8.20943 6.21541 8.17866 6.1734 8.13558 6.11938C8.07404 6.04736 7.96943 5.92732 7.87712 5.78928C7.80327 5.69925 7.71712 5.56721 7.63712 5.43516C7.53866 5.27311 7.4525 5.11106 7.36635 4.94301C7.35331 4.91576 7.3407 4.88865 7.32846 4.8617C7.23765 4.66165 6.97018 4.60316 6.81156 4.75787L3.28635 8.19604C3.20635 8.27406 3.1325 8.42411 3.11404 8.52614L2.78173 10.8249C2.7202 11.233 2.83712 11.6171 3.09558 11.8752C3.31712 12.0853 3.62481 12.1993 3.95712 12.1993C4.03096 12.1993 4.10481 12.1933 4.17866 12.1813L6.54173 11.8572C6.6525 11.8392 6.80635 11.7672 6.8802 11.6891L10.401 8.25527C10.5607 8.09949 10.5005 7.83213 10.2927 7.74566C10.2693 7.73593 10.2457 7.72601 10.2217 7.71589Z" fill="#FCFCFC"/>
</svg>
