<svg width="17" height="17" viewBox="0 0 17 17" fill="#C2540A" xmlns="http://www.w3.org/2000/svg">
<path d="M12.8207 3.54556L9.34726 2.1794C8.98729 2.04013 8.39996 2.04013 8.03999 2.1794L4.56655 3.54556C3.89712 3.81084 3.354 4.63319 3.354 5.38259V10.7544C3.354 11.2916 3.68872 12.0012 4.09921 12.3195L7.57265 15.0452C8.18524 15.5293 9.18938 15.5293 9.80197 15.0452L13.2754 12.3195C13.6859 11.9945 14.0206 11.2916 14.0206 10.7544V5.38259C14.0269 4.63319 13.4838 3.81084 12.8207 3.54556ZM10.8882 7.2594L8.17261 10.1111C8.07788 10.2106 7.95789 10.257 7.8379 10.257C7.7179 10.257 7.59791 10.2106 7.50318 10.1111L6.49273 9.03673C6.30958 8.84441 6.30958 8.52608 6.49273 8.33376C6.67587 8.14143 6.97901 8.14143 7.16215 8.33376L7.84421 9.05L10.2251 6.54979C10.4082 6.35747 10.7114 6.35747 10.8945 6.54979C11.0777 6.74211 11.0777 7.06708 10.8882 7.2594Z"/>
</svg>
