<svg width="24" height="25" viewBox="0 0 24 25" fill="none" xmlns="http://www.w3.org/2000/svg">
<path d="M13.7276 3.94402L15.4874 7.49232C15.7274 7.98626 16.3673 8.46004 16.9073 8.55077L20.0969 9.08503C22.1367 9.42776 22.6167 10.9197 21.1468 12.3914L18.6671 14.8913C18.2471 15.3147 18.0172 16.1312 18.1471 16.7159L18.8571 19.8106C19.417 22.2601 18.1271 23.2077 15.9774 21.9275L12.9877 20.1432C12.4478 19.8207 11.5579 19.8207 11.0079 20.1432L8.01827 21.9275C5.8785 23.2077 4.57865 22.25 5.13859 19.8106L5.84851 16.7159C5.97849 16.1312 5.74852 15.3147 5.32856 14.8913L2.84884 12.3914C1.389 10.9197 1.85895 9.42776 3.89872 9.08503L7.08837 8.55077C7.61831 8.46004 8.25824 7.98626 8.49821 7.49232L10.258 3.94402C11.2179 2.01866 12.7777 2.01866 13.7276 3.94402Z" fill="#BBC0C5"/>
</svg>
