<svg width="20" height="20" viewBox="0 0 20 20" fill="none" xmlns="http://www.w3.org/2000/svg">
<g id="user-cirlce-add-filled">
<g id="Vector">
<path d="M17.5157 2.72157C16.9443 2.07078 16.0951 1.66602 15.1586 1.66602C14.2697 1.66602 13.4602 2.03109 12.8808 2.62633C12.5475 2.9676 12.2935 3.3803 12.1427 3.84062C12.0395 4.15808 11.984 4.49141 11.984 4.84062C11.984 5.43586 12.1506 5.99935 12.4443 6.47554C12.603 6.74538 12.8094 6.99141 13.0475 7.19776C13.603 7.7057 14.3411 8.01522 15.1586 8.01522C15.5078 8.01522 15.8411 7.95967 16.1506 7.84856C16.8808 7.6184 17.4919 7.1184 17.8729 6.47554C18.0395 6.2057 18.1665 5.89617 18.2379 5.57871C18.3014 5.34062 18.3332 5.09459 18.3332 4.84062C18.3332 4.0311 18.0236 3.28506 17.5157 2.72157ZM16.3411 5.41998H15.7538V6.03903C15.7538 6.36443 15.484 6.63427 15.1586 6.63427C14.8332 6.63427 14.5633 6.36443 14.5633 6.03903V5.41998H13.976C13.6506 5.41998 13.3808 5.15014 13.3808 4.82475C13.3808 4.49935 13.6506 4.22951 13.976 4.22951H14.5633V3.66602C14.5633 3.34062 14.8332 3.07078 15.1586 3.07078C15.484 3.07078 15.7538 3.34062 15.7538 3.66602V4.22951H16.3411C16.6665 4.22951 16.9363 4.49935 16.9363 4.82475C16.9363 5.15014 16.6744 5.41998 16.3411 5.41998Z" fill="#24272A"/>
<path d="M17.5395 10.3962C17.5395 9.35649 17.3411 8.35649 16.9681 7.44379C16.7221 7.6184 16.4443 7.75332 16.1506 7.84856C16.0633 7.8803 15.976 7.90411 15.8808 7.92792C16.1824 8.68983 16.349 9.52316 16.349 10.3962C16.349 12.2374 15.603 13.912 14.3967 15.1343C14.1665 14.8406 13.8729 14.5708 13.5236 14.3406C11.3729 12.8962 7.84904 12.8962 5.68238 14.3406C5.33317 14.5708 5.04746 14.8406 4.80936 15.1343C3.60301 13.912 2.85698 12.2374 2.85698 10.3962C2.85698 6.67395 5.88079 3.65014 9.60301 3.65014C10.4681 3.65014 11.3014 3.81681 12.0633 4.1184C12.0871 4.02316 12.1109 3.93586 12.1427 3.84062C12.2379 3.54697 12.3729 3.27713 12.5554 3.0311C11.6427 2.65808 10.6427 2.45967 9.60301 2.45967C5.23 2.45967 1.6665 6.02316 1.6665 10.3962C1.6665 12.6978 2.65857 14.7692 4.23 16.2216C4.23 16.2295 4.23 16.2295 4.22206 16.2374C4.30142 16.3168 4.39666 16.3803 4.47603 16.4517C4.52365 16.4914 4.56333 16.5311 4.61095 16.5628C4.75381 16.6819 4.91254 16.793 5.06333 16.9041C5.11889 16.9438 5.1665 16.9755 5.22206 17.0152C5.37285 17.1184 5.53158 17.2136 5.69825 17.3009C5.75381 17.3327 5.8173 17.3724 5.87285 17.4041C6.03158 17.4914 6.19825 17.5708 6.37285 17.6422C6.43635 17.674 6.49984 17.7057 6.56333 17.7295C6.73793 17.8009 6.91254 17.8644 7.08714 17.92C7.15063 17.9438 7.21412 17.9676 7.27762 17.9835C7.46809 18.039 7.65857 18.0867 7.84904 18.1343C7.9046 18.1501 7.96016 18.166 8.02365 18.174C8.24587 18.2216 8.46809 18.2533 8.69825 18.2771C8.73 18.2771 8.76174 18.2851 8.79349 18.293C9.06333 18.3168 9.33317 18.3327 9.60301 18.3327C9.87285 18.3327 10.1427 18.3168 10.4046 18.293C10.4363 18.293 10.4681 18.2851 10.4998 18.2771C10.73 18.2533 10.9522 18.2216 11.1744 18.174C11.23 18.166 11.2856 18.1422 11.349 18.1343C11.5395 18.0867 11.7379 18.047 11.9205 17.9835C11.984 17.9597 12.0475 17.9359 12.1109 17.92C12.2856 17.8565 12.4681 17.8009 12.6348 17.7295C12.6982 17.7057 12.7617 17.674 12.8252 17.6422C12.9919 17.5708 13.1586 17.4914 13.3252 17.4041C13.3887 17.3724 13.4443 17.3327 13.4998 17.3009C13.6586 17.2057 13.8173 17.1184 13.976 17.0152C14.0316 16.9835 14.0792 16.9438 14.1348 16.9041C14.2935 16.793 14.4443 16.6819 14.5871 16.5628C14.6348 16.5232 14.6744 16.4835 14.7221 16.4517C14.8094 16.3803 14.8967 16.3089 14.976 16.2374C14.976 16.2295 14.976 16.2295 14.9681 16.2216C16.5475 14.7692 17.5395 12.6978 17.5395 10.3962Z" fill="#24272A"/>
<path d="M9.60301 6.3725C7.96016 6.3725 6.62682 7.70584 6.62682 9.3487C6.62682 10.9598 7.88873 12.2693 9.56333 12.3169C9.58714 12.3169 9.61889 12.3169 9.63476 12.3169C9.65063 12.3169 9.67444 12.3169 9.69031 12.3169C9.69825 12.3169 9.70619 12.3169 9.70619 12.3169C11.3094 12.2614 12.5713 10.9598 12.5792 9.3487C12.5792 7.70584 11.2459 6.3725 9.60301 6.3725Z" fill="#24272A"/>
</g>
</g>
</svg>
