<svg width="49" height="49" viewBox="0 0 49 49" fill="#BF5208" xmlns="http://www.w3.org/2000/svg">
<rect x="0.1875" y="0.741699" width="48" height="48" rx="24" fill-opacity="0.1"/>
<path d="M24.1875 12.2417C17.3 12.2417 11.6875 17.8542 11.6875 24.7417C11.6875 31.6292 17.3 37.2417 24.1875 37.2417C31.075 37.2417 36.6875 31.6292 36.6875 24.7417C36.6875 17.8542 31.075 12.2417 24.1875 12.2417ZM23.25 19.7417C23.25 19.2292 23.675 18.8042 24.1875 18.8042C24.7 18.8042 25.125 19.2292 25.125 19.7417V25.9917C25.125 26.5042 24.7 26.9292 24.1875 26.9292C23.675 26.9292 23.25 26.5042 23.25 25.9917V19.7417ZM25.3375 30.2167C25.275 30.3792 25.1875 30.5042 25.075 30.6292C24.95 30.7417 24.8125 30.8292 24.6625 30.8917C24.5125 30.9542 24.35 30.9917 24.1875 30.9917C24.025 30.9917 23.8625 30.9542 23.7125 30.8917C23.5625 30.8292 23.425 30.7417 23.3 30.6292C23.1875 30.5042 23.1 30.3792 23.0375 30.2167C22.975 30.0667 22.9375 29.9042 22.9375 29.7417C22.9375 29.5792 22.975 29.4167 23.0375 29.2667C23.1 29.1167 23.1875 28.9792 23.3 28.8542C23.425 28.7417 23.5625 28.6542 23.7125 28.5917C24.0125 28.4667 24.3625 28.4667 24.6625 28.5917C24.8125 28.6542 24.95 28.7417 25.075 28.8542C25.1875 28.9792 25.275 29.1167 25.3375 29.2667C25.4 29.4167 25.4375 29.5792 25.4375 29.7417C25.4375 29.9042 25.4 30.0667 25.3375 30.2167Z"/>
</svg>
